<!--?xml version="1.0" encoding="utf-8"?-->
<!-- Generator: Adobe Illustrator 22.1.0, SVG Export Plug-In . SVG Version: 6.00 Build 0)  -->
<svg version="1.1" id="_x33_" xmlns="http://www.w3.org/2000/svg" xmlns:xlink="http://www.w3.org/1999/xlink" x="0px" y="0px" viewBox="0 0 800 236.5" style="enable-background:new 0 0 800 236.5;" xml:space="preserve">
<style type="text/css">
	.stblack{fill:#000000;}
	.st0{fill:#FFFFFF;}
</style>
<g>
	<path class="stblack" d="M397.3,5.9c18.2,26.8,59,33.2,80.7,14.7c22.8,19.4,76.3,18.6,93.6-11.1c7.3,25.7,57.2,28.3,65.4,6.6
		c13.4,24.8,42.8,13.9,71.5-4.9c-9,37.1,2.3,30.9,33.8,22.8c-12.6,24.2-1,60.6,37.7,69.1c-30.8,17.3-55.9,35.1-34.4,61.2
		c-26.9,2.7-36.4,25.3-1.3,49.8c-39.1-13-91.1-20.2-101.9-0.4c-15.3-11.7-50.4-19.8-53.4,6.2c-18.4-23.3-41.7-26.8-57.9-1.7
		c-9.9-22.4-74.7-26.3-84.2,12.3v0c-21.4-34.5-74.7-30-120.1-3c-22.5-18.7-47.8-33.8-84.8,2.1c-6.3-26.6-69.2-27.1-85.8-4.8
		c-3.3-21.3-50.3-15.2-79.6,1c15.5-27.7,7.3-46.4-14.2-46.8c17.5-22.2,5.1-41.8-42.3-49c37.1-15.5,57.8-35.1,28.9-59.8
		C85,81.4,99.3,39.3,69.1,14c30.2,25.3,70.6,27.3,76.8,5.6c16.5,18.6,62.6,16.1,68-10.4c17.1,25.9,82.8,22,97.7,6.1
		C325.4,32.1,379.3,40.3,397.3,5.9z"></path>
	<path class="st0" d="M327.7,216.2c-12.3-9.7-26.1-17.8-42.6-17.8c-13.5,0-26.9,5.4-40.7,16.5c-8.8-9.7-24.8-15.5-44.5-15.5
		c-13.4,0-29.7,3-41.5,10.7c-5.1-4.6-13.6-8.5-28-8.5c-11.3,0-24.6,2.5-37.2,6.7c1.7-9.3,0.7-17.6-3.2-24.3c-3-5.2-7.4-9.1-13-11.5
		c3.6-9.2,2.5-16.6,0.4-21.9c-4.1-10.4-14.2-18.4-30-23.9C62,117.6,69.8,108,71.6,97.1c0.9-5.6,0.1-11.2-2.5-16.7
		C80,77.8,88.6,70.2,92.6,59.3c2.3-6.4,2.9-13.3,1.9-20.1c8.6,3,17.3,4.7,25.5,4.7c12.2,0,22.1-3.7,28.5-10.4
		c8.1,4.8,18.5,7.5,29.4,7.5c16.7,0,30.7-6.1,38.7-16.1c15.6,10.9,38,12.3,48.5,12.3c14.5,0,33.5-2.7,45.9-9.9
		c10.1,7.3,25.6,11.8,41.4,11.8c0,0,0,0,0,0c19,0,35-6.4,45.7-18c12.7,12.2,30.4,19.4,48.9,19.4c11.5,0,22.3-2.9,31.1-8.4
		c11.2,7,26.1,10.9,42.1,10.9c20.5,0,38.3-6.3,50.3-17.3c9.3,9.9,24.2,14.4,37.8,14.4c11.7,0,21.8-3.2,28.9-8.9
		c6.3,5.7,14.3,8.6,23.7,8.6c10.1,0,21.8-3.5,35.4-10.5c-0.1,5.7,1.1,10.3,3.9,13.9c3.2,4.1,8,6.2,14.3,6.2c4,0,8.7-0.9,14.2-2.2
		c-1.3,10.4,0.3,21.2,4.9,31.1c5.3,11.3,13.9,20.4,25,26.5c-14.9,9.7-27.1,20.7-29.8,34.9c-1.1,6.1-0.4,12.2,2.2,18.3
		c-9.3,3.8-15.7,10.3-17.9,18.8c-1.2,4.4-1.6,11.2,2.3,19.5c-14.1-2.9-27.4-4.5-38.9-4.5c-16.1,0-28.1,3.1-35.8,9.4
		c-9.3-5-20.7-8.2-30.3-8.2c-10.6,0-18.9,3.5-24.3,9.9c-9-7.7-18.8-11.8-28.5-11.8c-7.3,0-17.2,2.3-26.7,11.9
		c-9.9-7.8-24.8-11.4-38.1-11.4c-21,0-38.4,8-48.1,21.4c-11.9-10.9-28.5-16.7-48.1-16.7C375,196.6,350.8,203.5,327.7,216.2z"></path>
</g>
</svg>
